<svg width="262" height="138" viewBox="0 0 262 138" fill="none" xmlns="http://www.w3.org/2000/svg">
<path fill-rule="evenodd" clip-rule="evenodd" d="M122.058 135.669C156.243 142.513 187.472 123.237 201.073 93.8508C215.165 63.4051 206.559 31.4995 179.616 15.4488C155.87 1.30568 125.707 2.88777 102.283 14.2276C82.3444 23.8811 67.9597 41.4673 63.3187 62.3585C58.6074 83.5692 66.759 105.174 83.7732 121.438C94.3059 131.504 107.812 136.905 122.058 135.669ZM121.328 129.718C152.178 135.894 180.773 118.232 193.374 91.0089C206.431 62.7989 198.457 33.2383 173.496 18.3714C152.108 5.63442 125.091 6.92685 104.27 17.0074C86.1898 25.7613 73.1307 41.735 68.921 60.6847C64.6464 79.9288 72.0572 99.5532 87.4531 114.267C96.891 123.286 108.935 128.071 121.328 129.718Z" fill="#0D0D0D"/>
<path fill-rule="evenodd" clip-rule="evenodd" d="M120.98 123.269C147.839 128.646 172.944 113.649 183.248 91.1304C193.923 67.7924 187.593 41.6058 167.44 28.6721C150.034 17.2451 127.923 18.268 110.741 26.6369C96.0462 33.7929 85.4877 46.7748 82.0844 62.0268C78.6283 77.569 84.6768 93.4085 97.1554 105.355C104.66 112.539 114.315 116.478 124.148 118.09C123.105 119.816 122.052 121.545 120.98 123.269ZM123.302 113.855C146.543 118.508 168.124 105.438 176.837 86.3941C185.864 66.6611 180.511 44.5204 163.473 33.585C148.741 23.9232 130.039 24.7968 115.515 31.8715C103.094 37.9209 94.1702 48.8945 91.2939 61.7873C88.373 74.9255 93.4857 88.3151 104.033 98.4137C110.327 104.439 118.441 107.777 126.716 109.233C125.562 110.764 124.423 112.305 123.302 113.855Z" fill="#0D0D0D"/>
<path fill-rule="evenodd" clip-rule="evenodd" d="M130.75 89.5C71.0895 103.346 23.6236 97.0931 7.41499 76.4086C-8.79361 55.7241 12.4394 28.4353 72.1003 14.5889C131.761 0.742425 179.227 6.99531 195.436 27.6798C211.644 48.3643 190.411 75.6532 130.75 89.5ZM133.668 98.4706C197.086 83.749 219.666 54.7408 202.431 32.7409C185.196 10.741 134.722 4.0925 71.3043 18.8142C7.88653 33.5358 -14.6934 62.5441 2.54155 84.544C19.7765 106.544 70.25 113.192 133.668 98.4706Z" fill="#0D0D0D"/>
<path fill-rule="evenodd" clip-rule="evenodd" d="M142.638 82.5106C90.0711 94.7123 48.2509 89.2026 33.9694 70.9776C19.6879 52.7526 38.3968 28.7081 90.9639 16.5063C143.531 4.30463 185.351 9.81425 199.633 28.0393C213.914 46.2643 195.205 70.3088 142.638 82.5106ZM144.461 89.3409C199.525 76.5598 219.119 51.3851 204.161 32.2908C189.204 13.1964 145.383 7.4278 90.3185 20.2089C35.2544 32.99 15.6596 58.1647 30.6172 77.2591C45.5748 96.3534 89.3965 102.122 144.461 89.3409Z" fill="#0D0D0D"/>
<path d="M137.273 46.2139C137.379 56.1179 142.86 64.7973 154.159 67.4918C145.454 72.4227 139.268 81.1252 136.039 91.4621C132.365 81.3983 124.959 72.6966 114.952 67.2083C126.638 64.2027 133.795 55.4118 137.273 46.2139Z" fill="#0D0D0D"/>
<path d="M154.649 50.442C156.492 52.4105 158.907 53.8244 161.567 54.6564C159.21 56.4465 157.849 58.6514 157.488 61.3877C156.22 58.4963 153.995 56.4735 151.245 55.4612C153.757 53.9608 154.603 52.1103 154.649 50.442Z" fill="#0D0D0D"/>
<path d="M112.981 80.5419C114.986 81.7902 117.239 82.7449 119.769 83.2855C117.727 85.3652 116.674 87.8329 116.738 90.7584C115.071 88.0834 112.61 86.3711 109.736 85.797C112.131 84.108 112.804 82.1704 112.981 80.5419Z" fill="#0D0D0D"/>
</svg>