<?xml version="1.0" encoding="utf-8"?>
<!-- Svg Vector Icons : http://www.onlinewebfonts.com/icon -->
<!DOCTYPE svg PUBLIC "-//W3C//DTD SVG 1.1//EN" "http://www.w3.org/Graphics/SVG/1.1/DTD/svg11.dtd">
<svg version="1.1" xmlns="http://www.w3.org/2000/svg" xmlns:xlink="http://www.w3.org/1999/xlink" x="0px" y="0px" viewBox="0 0 256 256" enable-background="new 0 0 256 256" xml:space="preserve">
<metadata> Svg Vector Icons : http://www.onlinewebfonts.com/icon </metadata>
<g><g><g><path fill="#000000" d="M120,47.1c-6,0.8-13.2,2.3-18,3.9c-23.3,7.8-42.1,27-50.4,51.4c-2,5.9-4.3,17.7-4.3,22.2v2.6l-6.5,3.9c-20.1,12-30.8,23.7-30.7,33.4c0.1,8,5.5,13.2,17.1,16.3c38.1,10.3,134-12.4,188.3-44.6c26.9-16,36.8-31.7,26.9-42.8c-6-6.7-16.5-9.4-36.1-9.4h-9.7l-3-4.2c-6.8-9.7-20.1-20.6-31-25.6c-5.9-2.7-13.2-5.1-19.4-6.3C138.2,47.3,124.1,46.6,120,47.1z M221.6,94.8c9.7,1.4,14.8,4.3,14.8,8.6c0,12.1-37.4,34.6-83.2,50.3c-41.3,14.1-85,21.9-111.5,20c-8.5-0.6-13.2-1.5-17-3.1c-3-1.3-5.2-3.8-5.2-6c0-3.9,5.3-10.4,13.7-16.7c5.8-4.3,14-9.6,14.2-9.2c0.1,0.1,0.5,2.3,0.9,4.8c1.1,6.2,3.9,14.7,6.7,20.3l2.3,4.6l5.9-0.1c7.5-0.1,21.6-2,35.5-4.9c34.6-7,72-19.7,98.7-33.6c12.4-6.4,11.6-5.6,11-11.4c-0.9-7.1-3.3-15.9-6.3-23.1c-0.4-0.8-0.1-1,1.6-1.3C206.6,93.6,216.6,94.1,221.6,94.8z"/><path fill="#000000" d="M203.4,148.5c-1.4,0.7-6,3-10.4,4.9c-33.1,15.1-73.6,27-109.7,32.2c-5.7,0.8-10.5,1.6-10.7,1.8c-0.4,0.4,6.9,6,11.8,9.1c6,3.9,9.5,5.6,16.8,8.1c9.7,3.4,15.6,4.3,26.9,4.3c10.6-0.1,15.6-0.8,24.6-3.8c24.9-8.1,44.5-27.8,52.3-52.5c0.9-2.8,1.6-5.2,1.6-5.4C206.8,146.9,205.9,147.2,203.4,148.5z"/></g></g></g>
</svg>